<svg xmlns="http://www.w3.org/2000/svg" width="64" height="64" viewBox="0 0 64 64" fill="none" stroke="#3D5A4E" stroke-width="1.8" stroke-linecap="round" stroke-linejoin="round">
  <path d="M14 44 C12 38 16 34 14 28 C12 22 16 18 14 12" stroke="#A67B5B"/>
  <path d="M22 44 C20 38 24 34 22 28 C20 22 24 18 22 12" stroke="#A67B5B"/>
  <line x1="32" y1="10" x2="32" y2="54" stroke-dasharray="2 3" opacity="0.3"/>
  <path d="M44 16 C44 16 36 32 36 38 C36 42.4 39.6 46 44 46 C48.4 46 52 42.4 52 38 C52 32 44 16 44 16Z"/>
  <line x1="44" y1="30" x2="44" y2="42" stroke="#9CBCB4"/>
  <line x1="39" y1="36" x2="49" y2="36" stroke="#9CBCB4"/>
  <line x1="41" y1="32" x2="47" y2="40" stroke="#9CBCB4"/>
  <line x1="47" y1="32" x2="41" y2="40" stroke="#9CBCB4"/>
</svg>